<mxfile host="Electron" agent="Mozilla/5.0 (X11; Linux x86_64) AppleWebKit/537.36 (KHTML, like Gecko) draw.io/26.0.9 Chrome/128.0.6613.186 Electron/32.3.1 Safari/537.36" version="26.0.9">
  <diagram name="page 1" id="qVR1apmD6zJQwRJWvuhT">
    <mxGraphModel dx="528" dy="1398" grid="1" gridSize="10" guides="0" tooltips="1" connect="0" arrows="0" fold="1" page="0" pageScale="1" pageWidth="1" pageHeight="1" math="0" shadow="0">
      <root>
        <mxCell id="0" />
        <mxCell id="1" parent="0" />
        <mxCell id="bWEumTjsvRZVFGGNAj3E-36" value="" style="endArrow=diamondThin;html=1;rounded=0;endSize=8;startArrow=classic;startFill=1;endFill=0;startSize=8;jumpSize=5;fontFamily=Source Code Pro;fontSize=50;" parent="1" source="Wb4HUdw9TxemoLdWKfrY-1" target="KwJuDZs4jaI91m34SEeo-33" edge="1">
          <mxGeometry width="50" height="50" relative="1" as="geometry">
            <mxPoint x="1410" y="290" as="sourcePoint" />
            <mxPoint x="1552.102994173471" y="320.78728141309716" as="targetPoint" />
          </mxGeometry>
        </mxCell>
        <mxCell id="Wb4HUdw9TxemoLdWKfrY-1" value="01" style="ellipse;whiteSpace=wrap;html=1;aspect=fixed;fontFamily=Source Sans Pro;fillColor=#E6E6E6;fillStyle=solid;fontStyle=1;verticalAlign=middle;align=center;fontSize=10;" parent="1" vertex="1">
          <mxGeometry x="1600" y="200" width="40" height="40" as="geometry" />
        </mxCell>
        <mxCell id="KwJuDZs4jaI91m34SEeo-30" value="02" style="ellipse;whiteSpace=wrap;html=1;aspect=fixed;fontFamily=Source Sans Pro;fillColor=#E6E6E6;fillStyle=solid;fontStyle=1;verticalAlign=middle;align=center;fontSize=10;" parent="1" vertex="1">
          <mxGeometry x="1680" y="200" width="40" height="40" as="geometry" />
        </mxCell>
        <mxCell id="KwJuDZs4jaI91m34SEeo-31" value="03" style="ellipse;whiteSpace=wrap;html=1;aspect=fixed;fontFamily=Source Sans Pro;fillColor=#E6E6E6;fillStyle=solid;fontStyle=1;verticalAlign=middle;align=center;fontSize=10;" parent="1" vertex="1">
          <mxGeometry x="1760" y="200" width="40" height="40" as="geometry" />
        </mxCell>
        <mxCell id="KwJuDZs4jaI91m34SEeo-32" value="04" style="ellipse;whiteSpace=wrap;html=1;aspect=fixed;fontFamily=Source Sans Pro;fillColor=#E6E6E6;fillStyle=solid;fontStyle=1;verticalAlign=middle;align=center;fontSize=10;" parent="1" vertex="1">
          <mxGeometry x="1840" y="200" width="40" height="40" as="geometry" />
        </mxCell>
        <mxCell id="KwJuDZs4jaI91m34SEeo-33" value="05" style="ellipse;whiteSpace=wrap;html=1;aspect=fixed;fontFamily=Source Sans Pro;fillColor=#E6E6E6;fillStyle=solid;fontStyle=1;verticalAlign=middle;align=center;fontSize=10;" parent="1" vertex="1">
          <mxGeometry x="1640" y="280" width="40" height="40" as="geometry" />
        </mxCell>
        <mxCell id="KwJuDZs4jaI91m34SEeo-34" value="06" style="ellipse;whiteSpace=wrap;html=1;aspect=fixed;fontFamily=Source Sans Pro;fillColor=#E6E6E6;fillStyle=solid;fontStyle=1;verticalAlign=middle;align=center;fontSize=10;" parent="1" vertex="1">
          <mxGeometry x="1720" y="280" width="40" height="40" as="geometry" />
        </mxCell>
        <mxCell id="KwJuDZs4jaI91m34SEeo-35" value="07" style="ellipse;whiteSpace=wrap;html=1;aspect=fixed;fontFamily=Source Sans Pro;fillColor=#E6E6E6;fillStyle=solid;fontStyle=1;verticalAlign=middle;align=center;fontSize=10;" parent="1" vertex="1">
          <mxGeometry x="1800" y="280" width="40" height="40" as="geometry" />
        </mxCell>
        <mxCell id="KwJuDZs4jaI91m34SEeo-36" value="08" style="ellipse;whiteSpace=wrap;html=1;aspect=fixed;fontFamily=Source Sans Pro;fillColor=#E6E6E6;fillStyle=solid;fontStyle=1;verticalAlign=middle;align=center;fontSize=10;" parent="1" vertex="1">
          <mxGeometry x="1680" y="360" width="40" height="40" as="geometry" />
        </mxCell>
        <mxCell id="KwJuDZs4jaI91m34SEeo-37" value="09" style="ellipse;whiteSpace=wrap;html=1;aspect=fixed;fontFamily=Source Sans Pro;fillColor=#E6E6E6;fillStyle=solid;fontStyle=1;verticalAlign=middle;align=center;fontSize=10;" parent="1" vertex="1">
          <mxGeometry x="1760" y="360" width="40" height="40" as="geometry" />
        </mxCell>
        <mxCell id="KwJuDZs4jaI91m34SEeo-38" value="10" style="ellipse;whiteSpace=wrap;html=1;aspect=fixed;fontFamily=Source Sans Pro;fillColor=#E6E6E6;fillStyle=solid;fontStyle=1;verticalAlign=middle;align=center;fontSize=10;" parent="1" vertex="1">
          <mxGeometry x="1720" y="440" width="40" height="40" as="geometry" />
        </mxCell>
        <mxCell id="KwJuDZs4jaI91m34SEeo-39" value="" style="endArrow=diamondThin;html=1;rounded=0;endSize=8;startArrow=classic;startFill=1;endFill=0;startSize=8;jumpSize=5;fontFamily=Source Code Pro;fontSize=50;" parent="1" source="KwJuDZs4jaI91m34SEeo-30" target="KwJuDZs4jaI91m34SEeo-33" edge="1">
          <mxGeometry width="50" height="50" relative="1" as="geometry">
            <mxPoint x="1639" y="248" as="sourcePoint" />
            <mxPoint x="1661" y="292" as="targetPoint" />
          </mxGeometry>
        </mxCell>
        <mxCell id="KwJuDZs4jaI91m34SEeo-40" value="" style="endArrow=diamondThin;html=1;rounded=0;endSize=8;startArrow=classic;startFill=1;endFill=0;startSize=8;jumpSize=5;fontFamily=Source Code Pro;fontSize=50;" parent="1" source="KwJuDZs4jaI91m34SEeo-30" target="KwJuDZs4jaI91m34SEeo-34" edge="1">
          <mxGeometry width="50" height="50" relative="1" as="geometry">
            <mxPoint x="1701" y="248" as="sourcePoint" />
            <mxPoint x="1679" y="292" as="targetPoint" />
          </mxGeometry>
        </mxCell>
        <mxCell id="KwJuDZs4jaI91m34SEeo-41" value="" style="endArrow=diamondThin;html=1;rounded=0;endSize=8;startArrow=classic;startFill=1;endFill=0;startSize=8;jumpSize=5;fontFamily=Source Code Pro;fontSize=50;" parent="1" source="KwJuDZs4jaI91m34SEeo-31" target="KwJuDZs4jaI91m34SEeo-34" edge="1">
          <mxGeometry width="50" height="50" relative="1" as="geometry">
            <mxPoint x="1711" y="258" as="sourcePoint" />
            <mxPoint x="1689" y="302" as="targetPoint" />
          </mxGeometry>
        </mxCell>
        <mxCell id="KwJuDZs4jaI91m34SEeo-42" value="" style="endArrow=diamondThin;html=1;rounded=0;endSize=8;startArrow=classic;startFill=1;endFill=0;startSize=8;jumpSize=5;fontFamily=Source Code Pro;fontSize=50;" parent="1" source="KwJuDZs4jaI91m34SEeo-31" target="KwJuDZs4jaI91m34SEeo-35" edge="1">
          <mxGeometry width="50" height="50" relative="1" as="geometry">
            <mxPoint x="1781" y="248" as="sourcePoint" />
            <mxPoint x="1759" y="292" as="targetPoint" />
          </mxGeometry>
        </mxCell>
        <mxCell id="KwJuDZs4jaI91m34SEeo-43" value="" style="endArrow=diamondThin;html=1;rounded=0;endSize=8;startArrow=classic;startFill=1;endFill=0;startSize=8;jumpSize=5;fontFamily=Source Code Pro;fontSize=50;" parent="1" source="KwJuDZs4jaI91m34SEeo-32" target="KwJuDZs4jaI91m34SEeo-35" edge="1">
          <mxGeometry width="50" height="50" relative="1" as="geometry">
            <mxPoint x="1799" y="248" as="sourcePoint" />
            <mxPoint x="1821" y="292" as="targetPoint" />
          </mxGeometry>
        </mxCell>
        <mxCell id="KwJuDZs4jaI91m34SEeo-44" value="" style="endArrow=diamondThin;html=1;rounded=0;endSize=8;startArrow=classic;startFill=1;endFill=0;startSize=8;jumpSize=5;fontFamily=Source Code Pro;fontSize=50;" parent="1" source="KwJuDZs4jaI91m34SEeo-33" target="KwJuDZs4jaI91m34SEeo-36" edge="1">
          <mxGeometry width="50" height="50" relative="1" as="geometry">
            <mxPoint x="1660" y="300" as="sourcePoint" />
            <mxPoint x="1661" y="292" as="targetPoint" />
          </mxGeometry>
        </mxCell>
        <mxCell id="KwJuDZs4jaI91m34SEeo-45" value="" style="endArrow=diamondThin;html=1;rounded=0;endSize=8;startArrow=classic;startFill=1;endFill=0;startSize=8;jumpSize=5;fontFamily=Source Code Pro;fontSize=50;" parent="1" source="KwJuDZs4jaI91m34SEeo-34" target="KwJuDZs4jaI91m34SEeo-36" edge="1">
          <mxGeometry width="50" height="50" relative="1" as="geometry">
            <mxPoint x="1670" y="310" as="sourcePoint" />
            <mxPoint x="1701" y="372" as="targetPoint" />
          </mxGeometry>
        </mxCell>
        <mxCell id="KwJuDZs4jaI91m34SEeo-46" value="" style="endArrow=diamondThin;html=1;rounded=0;endSize=8;startArrow=classic;startFill=1;endFill=0;startSize=8;jumpSize=5;fontFamily=Source Code Pro;fontSize=50;" parent="1" source="KwJuDZs4jaI91m34SEeo-34" target="KwJuDZs4jaI91m34SEeo-37" edge="1">
          <mxGeometry width="50" height="50" relative="1" as="geometry">
            <mxPoint x="1741" y="328" as="sourcePoint" />
            <mxPoint x="1719" y="372" as="targetPoint" />
          </mxGeometry>
        </mxCell>
        <mxCell id="KwJuDZs4jaI91m34SEeo-47" value="" style="endArrow=diamondThin;html=1;rounded=0;endSize=8;startArrow=classic;startFill=1;endFill=0;startSize=8;jumpSize=5;fontFamily=Source Code Pro;fontSize=50;" parent="1" source="KwJuDZs4jaI91m34SEeo-35" target="KwJuDZs4jaI91m34SEeo-37" edge="1">
          <mxGeometry width="50" height="50" relative="1" as="geometry">
            <mxPoint x="1759" y="328" as="sourcePoint" />
            <mxPoint x="1780" y="380" as="targetPoint" />
          </mxGeometry>
        </mxCell>
        <mxCell id="KwJuDZs4jaI91m34SEeo-48" value="" style="endArrow=diamondThin;html=1;rounded=0;endSize=8;startArrow=classic;startFill=1;endFill=0;startSize=8;jumpSize=5;fontFamily=Source Code Pro;fontSize=50;" parent="1" source="KwJuDZs4jaI91m34SEeo-37" target="KwJuDZs4jaI91m34SEeo-38" edge="1">
          <mxGeometry width="50" height="50" relative="1" as="geometry">
            <mxPoint x="1821" y="328" as="sourcePoint" />
            <mxPoint x="1799" y="372" as="targetPoint" />
          </mxGeometry>
        </mxCell>
        <mxCell id="KwJuDZs4jaI91m34SEeo-49" value="" style="endArrow=diamondThin;html=1;rounded=0;endSize=8;startArrow=classic;startFill=1;endFill=0;startSize=8;jumpSize=5;fontFamily=Source Code Pro;fontSize=50;" parent="1" source="KwJuDZs4jaI91m34SEeo-36" target="KwJuDZs4jaI91m34SEeo-38" edge="1">
          <mxGeometry width="50" height="50" relative="1" as="geometry">
            <mxPoint x="1781" y="408" as="sourcePoint" />
            <mxPoint x="1759" y="452" as="targetPoint" />
          </mxGeometry>
        </mxCell>
        <mxCell id="KwJuDZs4jaI91m34SEeo-50" value="Iz" style="ellipse;whiteSpace=wrap;html=1;aspect=fixed;fontFamily=Source Sans Pro;fillColor=#BEBEBE;fillStyle=solid;fontStyle=1;verticalAlign=middle;align=center;fontSize=10;" parent="1" vertex="1">
          <mxGeometry x="1600" y="120" width="40" height="40" as="geometry" />
        </mxCell>
        <mxCell id="KwJuDZs4jaI91m34SEeo-51" value="De" style="ellipse;whiteSpace=wrap;html=1;aspect=fixed;fontFamily=Source Sans Pro;fillColor=#BEBEBE;fillStyle=solid;fontStyle=1;verticalAlign=middle;align=center;fontSize=10;" parent="1" vertex="1">
          <mxGeometry x="1680" y="120" width="40" height="40" as="geometry" />
        </mxCell>
        <mxCell id="KwJuDZs4jaI91m34SEeo-52" value="Ce" style="ellipse;whiteSpace=wrap;html=1;aspect=fixed;fontFamily=Source Sans Pro;fillColor=#BEBEBE;fillStyle=solid;fontStyle=1;verticalAlign=middle;align=center;fontSize=10;" parent="1" vertex="1">
          <mxGeometry x="1760" y="120" width="40" height="40" as="geometry" />
        </mxCell>
        <mxCell id="KwJuDZs4jaI91m34SEeo-53" value="Li" style="ellipse;whiteSpace=wrap;html=1;aspect=fixed;fontFamily=Source Sans Pro;fillColor=#BEBEBE;fillStyle=solid;fontStyle=1;verticalAlign=middle;align=center;fontSize=10;" parent="1" vertex="1">
          <mxGeometry x="1840" y="120" width="40" height="40" as="geometry" />
        </mxCell>
        <mxCell id="KwJuDZs4jaI91m34SEeo-54" value="" style="endArrow=diamondThin;html=1;rounded=0;endSize=8;startArrow=classic;startFill=1;endFill=0;startSize=8;jumpSize=5;fontFamily=Source Code Pro;fontSize=50;" parent="1" source="KwJuDZs4jaI91m34SEeo-50" target="Wb4HUdw9TxemoLdWKfrY-1" edge="1">
          <mxGeometry width="50" height="50" relative="1" as="geometry">
            <mxPoint x="1639" y="248" as="sourcePoint" />
            <mxPoint x="1661" y="292" as="targetPoint" />
          </mxGeometry>
        </mxCell>
        <mxCell id="KwJuDZs4jaI91m34SEeo-55" value="" style="endArrow=diamondThin;html=1;rounded=0;endSize=8;startArrow=classic;startFill=1;endFill=0;startSize=8;jumpSize=5;fontFamily=Source Code Pro;fontSize=50;" parent="1" source="KwJuDZs4jaI91m34SEeo-51" target="KwJuDZs4jaI91m34SEeo-30" edge="1">
          <mxGeometry width="50" height="50" relative="1" as="geometry">
            <mxPoint x="1630" y="170" as="sourcePoint" />
            <mxPoint x="1630" y="210" as="targetPoint" />
          </mxGeometry>
        </mxCell>
        <mxCell id="KwJuDZs4jaI91m34SEeo-56" value="" style="endArrow=diamondThin;html=1;rounded=0;endSize=8;startArrow=classic;startFill=1;endFill=0;startSize=8;jumpSize=5;fontFamily=Source Code Pro;fontSize=50;" parent="1" source="KwJuDZs4jaI91m34SEeo-52" target="KwJuDZs4jaI91m34SEeo-31" edge="1">
          <mxGeometry width="50" height="50" relative="1" as="geometry">
            <mxPoint x="1710" y="170" as="sourcePoint" />
            <mxPoint x="1710" y="210" as="targetPoint" />
          </mxGeometry>
        </mxCell>
        <mxCell id="KwJuDZs4jaI91m34SEeo-57" value="" style="endArrow=diamondThin;html=1;rounded=0;endSize=8;startArrow=classic;startFill=1;endFill=0;startSize=8;jumpSize=5;fontFamily=Source Code Pro;fontSize=50;" parent="1" source="KwJuDZs4jaI91m34SEeo-53" target="KwJuDZs4jaI91m34SEeo-32" edge="1">
          <mxGeometry width="50" height="50" relative="1" as="geometry">
            <mxPoint x="1790" y="170" as="sourcePoint" />
            <mxPoint x="1790" y="210" as="targetPoint" />
          </mxGeometry>
        </mxCell>
        <mxCell id="f5W8VQEoB_98xhXQ8HOL-1" value="arrow meaning" style="dropTarget=0;fillColor=#BEBEBE;fontFamily=Source Sans Pro;verticalAlign=top;fillStyle=hatch;strokeColor=default;perimeterSpacing=1;rounded=0;glass=0;shadow=0;align=center;labelBackgroundColor=none;labelBorderColor=none;textShadow=0;fontStyle=1;spacing=2;html=1;whiteSpace=wrap;" vertex="1" parent="1">
          <mxGeometry x="1620" y="-80" width="240" height="160" as="geometry" />
        </mxCell>
        <mxCell id="f5W8VQEoB_98xhXQ8HOL-2" value="A" style="ellipse;whiteSpace=wrap;html=1;aspect=fixed;fontFamily=Source Sans Pro;fillColor=#E6E6E6;fillStyle=solid;fontStyle=1;verticalAlign=middle;align=center;fontSize=10;" vertex="1" parent="1">
          <mxGeometry x="1660" y="-20" width="40" height="40" as="geometry" />
        </mxCell>
        <mxCell id="f5W8VQEoB_98xhXQ8HOL-3" value="B" style="ellipse;whiteSpace=wrap;html=1;aspect=fixed;fontFamily=Source Sans Pro;fillColor=#E6E6E6;fillStyle=solid;fontStyle=1;verticalAlign=middle;align=center;fontSize=10;" vertex="1" parent="1">
          <mxGeometry x="1780" y="-20" width="40" height="40" as="geometry" />
        </mxCell>
        <mxCell id="f5W8VQEoB_98xhXQ8HOL-4" value="" style="endArrow=diamondThin;html=1;rounded=0;endSize=8;startArrow=classic;startFill=1;endFill=0;startSize=8;jumpSize=5;fontFamily=Source Code Pro;fontSize=50;" edge="1" parent="1" source="f5W8VQEoB_98xhXQ8HOL-2" target="f5W8VQEoB_98xhXQ8HOL-3">
          <mxGeometry width="50" height="50" relative="1" as="geometry">
            <mxPoint x="2008" y="186" as="sourcePoint" />
            <mxPoint x="2052" y="274" as="targetPoint" />
          </mxGeometry>
        </mxCell>
        <mxCell id="f5W8VQEoB_98xhXQ8HOL-5" value="&lt;div&gt;B follows A&lt;/div&gt;A influences B" style="text;html=1;align=center;verticalAlign=middle;whiteSpace=wrap;rounded=0;fontFamily=Source Sans Pro;fontSize=8;fontStyle=1;fillColor=none;" vertex="1" parent="1">
          <mxGeometry x="1680" y="20" width="120" height="40" as="geometry" />
        </mxCell>
        <mxCell id="f5W8VQEoB_98xhXQ8HOL-6" value="" style="endArrow=none;html=1;rounded=0;endSize=10;startArrow=none;startFill=0;endFill=0;startSize=10;jumpSize=5;fontFamily=Source Code Pro;fontSize=50;edgeStyle=orthogonalEdgeStyle;dashed=1;" edge="1" parent="1" source="f5W8VQEoB_98xhXQ8HOL-5">
          <mxGeometry width="50" height="50" relative="1" as="geometry">
            <mxPoint x="1550" y="310" as="sourcePoint" />
            <mxPoint x="1740" as="targetPoint" />
          </mxGeometry>
        </mxCell>
        <mxCell id="f5W8VQEoB_98xhXQ8HOL-7" value="6" style="text;html=1;align=center;verticalAlign=middle;whiteSpace=wrap;rounded=0;fontFamily=Source Code Pro;fontSize=8;fontStyle=1;fillColor=#E1DCDC;strokeColor=default;dashed=1;" vertex="1" parent="1">
          <mxGeometry x="1590" y="120" width="20" height="10" as="geometry" />
        </mxCell>
        <mxCell id="f5W8VQEoB_98xhXQ8HOL-8" value="42" style="text;html=1;align=center;verticalAlign=middle;whiteSpace=wrap;rounded=0;fontFamily=Source Code Pro;fontSize=8;fontStyle=1;fillColor=#E1DCDC;strokeColor=default;dashed=1;" vertex="1" parent="1">
          <mxGeometry x="1670" y="120" width="20" height="10" as="geometry" />
        </mxCell>
        <mxCell id="f5W8VQEoB_98xhXQ8HOL-9" value="40" style="text;html=1;align=center;verticalAlign=middle;whiteSpace=wrap;rounded=0;fontFamily=Source Code Pro;fontSize=8;fontStyle=1;fillColor=#E1DCDC;strokeColor=default;dashed=1;" vertex="1" parent="1">
          <mxGeometry x="1750" y="120" width="20" height="10" as="geometry" />
        </mxCell>
        <mxCell id="f5W8VQEoB_98xhXQ8HOL-10" value="53" style="text;html=1;align=center;verticalAlign=middle;whiteSpace=wrap;rounded=0;fontFamily=Source Code Pro;fontSize=8;fontStyle=1;fillColor=#E1DCDC;strokeColor=default;dashed=1;" vertex="1" parent="1">
          <mxGeometry x="1830" y="120" width="20" height="10" as="geometry" />
        </mxCell>
        <mxCell id="f5W8VQEoB_98xhXQ8HOL-11" value="88" style="text;html=1;align=center;verticalAlign=middle;whiteSpace=wrap;rounded=0;fontFamily=Source Code Pro;fontSize=8;fontStyle=1;fillColor=#E1DCDC;strokeColor=default;dashed=1;" vertex="1" parent="1">
          <mxGeometry x="1590" y="200" width="20" height="10" as="geometry" />
        </mxCell>
        <mxCell id="f5W8VQEoB_98xhXQ8HOL-12" value="61" style="text;html=1;align=center;verticalAlign=middle;whiteSpace=wrap;rounded=0;fontFamily=Source Code Pro;fontSize=8;fontStyle=1;fillColor=#E1DCDC;strokeColor=default;dashed=1;" vertex="1" parent="1">
          <mxGeometry x="1670" y="200" width="20" height="10" as="geometry" />
        </mxCell>
        <mxCell id="f5W8VQEoB_98xhXQ8HOL-13" value="33" style="text;html=1;align=center;verticalAlign=middle;whiteSpace=wrap;rounded=0;fontFamily=Source Code Pro;fontSize=8;fontStyle=1;fillColor=#E1DCDC;strokeColor=default;dashed=1;" vertex="1" parent="1">
          <mxGeometry x="1750" y="200" width="20" height="10" as="geometry" />
        </mxCell>
        <mxCell id="f5W8VQEoB_98xhXQ8HOL-14" value="96" style="text;html=1;align=center;verticalAlign=middle;whiteSpace=wrap;rounded=0;fontFamily=Source Code Pro;fontSize=8;fontStyle=1;fillColor=#E1DCDC;strokeColor=default;dashed=1;" vertex="1" parent="1">
          <mxGeometry x="1830" y="200" width="20" height="10" as="geometry" />
        </mxCell>
        <mxCell id="f5W8VQEoB_98xhXQ8HOL-15" value="22" style="text;html=1;align=center;verticalAlign=middle;whiteSpace=wrap;rounded=0;fontFamily=Source Code Pro;fontSize=8;fontStyle=1;fillColor=#E1DCDC;strokeColor=default;dashed=1;" vertex="1" parent="1">
          <mxGeometry x="1630" y="310" width="20" height="10" as="geometry" />
        </mxCell>
        <mxCell id="f5W8VQEoB_98xhXQ8HOL-16" value="7" style="text;html=1;align=center;verticalAlign=middle;whiteSpace=wrap;rounded=0;fontFamily=Source Code Pro;fontSize=8;fontStyle=1;fillColor=#E1DCDC;strokeColor=default;dashed=1;" vertex="1" parent="1">
          <mxGeometry x="1710" y="310" width="20" height="10" as="geometry" />
        </mxCell>
        <mxCell id="f5W8VQEoB_98xhXQ8HOL-17" value="24" style="text;html=1;align=center;verticalAlign=middle;whiteSpace=wrap;rounded=0;fontFamily=Source Code Pro;fontSize=8;fontStyle=1;fillColor=#E1DCDC;strokeColor=default;dashed=1;" vertex="1" parent="1">
          <mxGeometry x="1830" y="310" width="20" height="10" as="geometry" />
        </mxCell>
        <mxCell id="f5W8VQEoB_98xhXQ8HOL-19" value="38" style="text;html=1;align=center;verticalAlign=middle;whiteSpace=wrap;rounded=0;fontFamily=Source Code Pro;fontSize=8;fontStyle=1;fillColor=#E1DCDC;strokeColor=default;dashed=1;" vertex="1" parent="1">
          <mxGeometry x="1670" y="390" width="20" height="10" as="geometry" />
        </mxCell>
        <mxCell id="f5W8VQEoB_98xhXQ8HOL-20" value="74" style="text;html=1;align=center;verticalAlign=middle;whiteSpace=wrap;rounded=0;fontFamily=Source Code Pro;fontSize=8;fontStyle=1;fillColor=#E1DCDC;strokeColor=default;dashed=1;" vertex="1" parent="1">
          <mxGeometry x="1790" y="390" width="20" height="10" as="geometry" />
        </mxCell>
        <mxCell id="f5W8VQEoB_98xhXQ8HOL-23" value="85" style="text;html=1;align=center;verticalAlign=middle;whiteSpace=wrap;rounded=0;fontFamily=Source Code Pro;fontSize=8;fontStyle=1;fillColor=#E1DCDC;strokeColor=default;dashed=1;" vertex="1" parent="1">
          <mxGeometry x="1710" y="470" width="20" height="10" as="geometry" />
        </mxCell>
      </root>
    </mxGraphModel>
  </diagram>
</mxfile>
